# xmcd
#
# Track frame offsets:
#	150
#	28023
#	45728
#	81618
#	117324
#	156752
#	182144
#	218665
#
# Disc length: 3328 seconds
#
# Revision: 1
# Processed by: cddbd v1.5.2PL0 Copyright (c) Steve Scherf et al.
# Submitted via: audiograbber 1.83.01
#
DISCID=6b0cfe08
DTITLE=Grateful Dead - 95-02-20 Delta Centre, Salt Lake City UT
DYEAR=1900
DGENRE=
TTITLE0=Bertha
TTITLE1=Greatest Story Ever Told
TTITLE2=Loser
TTITLE3=Little Red Rooster
TTITLE4=Ramble On Rose
TTITLE5=El Paso
TTITLE6=Lazy River Road
TTITLE7=Cassidy
EXTD=
EXTT0=
EXTT1=
EXTT2=
EXTT3=
EXTT4=
EXTT5=
EXTT6=
EXTT7=
PLAYORDER=
